<?xml version="1.0" encoding="UTF-8" standalone="no"?>
<svg xmlns:rdf="http://www.w3.org/1999/02/22-rdf-syntax-ns#" xmlns="http://www.w3.org/2000/svg" height="125.393" width="208.007" version="1.1" xmlns:cc="http://creativecommons.org/ns#" xmlns:xlink="http://www.w3.org/1999/xlink" xmlns:dc="http://purl.org/dc/elements/1.1/">
 <defs>
  <linearGradient id="a" y2="101.356" gradientUnits="userSpaceOnUse" y1="107.511" x2="101.202" x1="101.202">
   <stop stop-color="red" offset="0"/>
   <stop stop-color="#fff" offset=".2"/>
   <stop stop-color="#fff" offset=".501961"/>
   <stop stop-color="#fff" offset=".8"/>
   <stop stop-color="red" offset="1"/>
  </linearGradient>
  <style type="text/css">.str0 {stroke:white;stroke-width:0.0762}
    .fil2 {fill:black}
    .fil1 {fill:#CC3300}
    .fil0 {fill:#DEB94E}
    .fil6 {fill:url(#a)}
    .fil5 {fill:url(#id1)}
    .fil4 {fill:url(#id2)}
    .fil3 {fill:url(#id3)}
    .fil7 {fill:url(#id4)}</style>
 </defs>
 <g fill-rule="evenodd" transform="translate(-116.488 77.6993)" fill="#231f20">
  <path d="m188.498 43.5903h14.1176v-117.289h-14.1176v117.289z"/>
  <path d="m154.493-24.3468c-7.43413 0-14.291 2.415-19.8868 6.4625v-55.815h-14.1181v82.8214h0.0267c-0.002 0.179625-0.0267 0.354875-0.0267 0.536625 0 18.7808 15.2245 34.0029 34.0049 34.0029 18.7792 0 34.0049-15.2221 34.0049-34.0029 0-18.7809-15.2256-34.0055-34.0049-34.0055zm0 53.9336c-11.0064 0-19.9282-8.92138-19.9282-19.9281 0-0.18175 0.022-0.357 0.0274-0.536625h0.0141v-0.288625c0.43601-10.6216 9.15913-19.1025 19.8868-19.1025 11.0049 0 19.9272 8.92138 19.9272 19.9278 0 11.0068-8.92237 19.9281-19.9272 19.9281"/>
  <path d="m254.684-27.6568v38.5195c0 10.6265-8.61375 19.2389-19.2362 19.2389-10.6268 0-19.2401-8.61238-19.2401-19.2389v-38.5195h-13.5922v38.5195h0.001c0 18.1309 14.6968 32.8291 32.8309 32.8291 18.13 0 32.8288-14.6982 32.8288-32.8291v-38.5195h-13.5925"/>
  <path d="m300.957-27.6568v-0.3c-17.1188 0-31.16 13.0999-32.68 29.82h-0.15125v41.8306h13.5912v-38.8232c0-10.626 8.61375-19.2392 19.24-19.2392h23.5388v-13.2881h-23.5388"/>
 </g>
</svg>
